/* XPM */
static char * enemy_xpm[] = {
"64 64 10 1",
" 	c #509B66",
".	c #1C0B21",
"+	c #75A3A8",
"@	c #30626D",
"#	c #000000",
"$	c #1D1D1C",
"%	c #D8180B",
"&	c #AFC8C8",
"*	c #331B1A",
"=	c #414040",
"                                                                ",
"                                                                ",
"                                                                ",
"                                                                ",
"                                                                ",
"                                                                ",
"                              ...        ...                    ",
"                              ...        ...                    ",
"                              ...        ...                    ",
"                              ...        ...                    ",
"                          ....+++........+++....                ",
"                          ....+++........+++....                ",
"                          ....+++........+++....                ",
"                          ....@@@@@@@@@@@@@@....                ",
"                          ....@@@@@@@@@@@@@@....                ",
"                          ....@@@@@@@@@@@@@@....                ",
"                          ....@@@@@@@@@@@@@@....                ",
"               ###########@@@@@@@++++@@@@+++@@@@....            ",
"               ###########@@@@@@@++++@@@@+++@@@@....            ",
"               ###########@@@@@@@++++@@@@+++@@@@....            ",
"               ###########@@@@@@@++++@@@@+++@@@@....            ",
"           ....+++++++$$$$@@@@+++%%%%&&&&%%%@@@@####            ",
"           ....+++++++$$$$@@@@+++%%%%&&&&%%%@@@@####            ",
"           ....+++++++$$$$@@@@+++%%%%&&&&%%%@@@@####            ",
"        ...++++@@@@@@@$$$$****@@@++++&&&&+++****++++...         ",
"        ...++++@@@@@@@$$$$****@@@++++&&&&+++****++++...         ",
"        ...++++@@@@@@@$$$$****@@@++++&&&&+++****++++...         ",
"        ...++++@@@@@@@$$$$****@@@++++&&&&+++****++++...         ",
"    ....+++@@@@====@@@@@@@$$$$***&&&&$$$$&&&$$$$@@@@+++....     ",
"    ....+++@@@@====@@@@@@@$$$$***&&&&$$$$&&&$$$$@@@@+++....     ",
"    ....+++@@@@====@@@@@@@$$$$***&&&&$$$$&&&$$$$@@@@+++....     ",
"    ....@@@====$$$$@@@@@@@@@@@$$$********$$$@@@@====@@@....     ",
"    ....@@@====$$$$@@@@@@@@@@@$$$********$$$@@@@====@@@....     ",
"    ....@@@====$$$$@@@@@@@@@@@$$$********$$$@@@@====@@@....     ",
"    ....@@@====$$$$@@@@@@@@@@@$$$********$$$@@@@====@@@....     ",
"    ....@@@====$$$$===@@@@@@@@@@@$$$$$$$$@@@====$$$$@@@....     ",
"    ....@@@====$$$$===@@@@@@@@@@@$$$$$$$$@@@====$$$$@@@....     ",
"    ....@@@====$$$$===@@@@@@@@@@@$$$$$$$$@@@====$$$$@@@....     ",
"    ....@@@====$$$$===@@@@@@@@@@@$$$$$$$$@@@====$$$$@@@....     ",
"    ....===@@@@++++$$$====@@@@@@@@@@@@@@@===$$$$++++@@@....     ",
"    ....===@@@@++++$$$====@@@@@@@@@@@@@@@===$$$$++++@@@....     ",
"    ....===@@@@++++$$$====@@@@@@@@@@@@@@@===$$$$++++@@@....     ",
"        ...====@@@@$$$$$$$****=======****$$$$$$$@@@@===....     ",
"        ...====@@@@$$$$$$$****=======****$$$$$$$@@@@===....     ",
"        ...====@@@@$$$$$$$****=======****$$$$$$$@@@@===....     ",
"        ...====@@@@$$$$$$$****=======****$$$$$$$@@@@===....     ",
"           ........$$$++++$$$$*******++++$$$    .......         ",
"           ........$$$++++$$$$*******++++$$$    .......         ",
"           ........$$$++++$$$$*******++++$$$    .......         ",
"           ........$$$++++$$$$*******++++$$$    .......         ",
"                   ...@@@@++++$$$****@@@@+++....                ",
"                   ...@@@@++++$$$****@@@@+++....                ",
"                   ...@@@@++++$$$****@@@@+++....                ",
"                   ...****@@@@+++$$$$====@@@....                ",
"                   ...****@@@@+++$$$$====@@@....                ",
"                   ...****@@@@+++$$$$====@@@....                ",
"                   ...****@@@@+++$$$$====@@@....                ",
"                   ...====@@@@...====@@@@...                    ",
"                   ...====@@@@...====@@@@...                    ",
"                   ...====@@@@...====@@@@...                    ",
"                   ...====@@@@...====@@@@...                    ",
"                   ...****....   ....*******....                ",
"                   ...****....   ....*******....                ",
"                   ...****....   ....*******....                "};
