/* XPM */
static char * exit_c_xpm[] = {
"64 64 9 1",
" 	c #677598",
".	c #21110D",
"+	c #755338",
"@	c #503625",
"#	c #342319",
"$	c #E9CE7C",
"%	c #D99945",
"&	c #000000",
"*	c #509B66",
"    ........................................................    ",
"    ........................................................    ",
"    ........................................................    ",
"    ........................................................    ",
"....++++++++++++++++++++++++++++++++++++++++++++++++++++++++....",
"....++++++++++++++++++++++++++++++++++++++++++++++++++++++++....",
"....++++++++++++++++++++++++++++++++++++++++++++++++++++++++....",
"....++++++++++++++++++++++++++++++++++++++++++++++++++++++++....",
"....++++++++++++++++++++++++++++++++++++++++++++++++++++++++....",
"....++++++++++++++++++++++++++++++++++++++++++++++++++++++++....",
"....++++++++++++++++++++++++++++++++++++++++++++++++++++++++....",
"....++++++++++++++++++++++++++++++++++++++++++++++++++++++++....",
"....@@@@################################################@@@@....",
"....@@@@################################################@@@@....",
"....@@@@################################################@@@@....",
"....@@@@################################################@@@@....",
"....++++####@@@@@@@@####@@@@@@@@@@@@@@@@####@@@@@@@@####++++....",
"....++++####@@@@@@@@####@@@@@@@@@@@@@@@@####@@@@@@@@####++++....",
"....++++####@@@@@@@@####@@@@@@@@@@@@@@@@####@@@@@@@@####++++....",
"....++++####@@@@@@@@####@@@@@@@@@@@@@@@@####@@@@@@@@####++++....",
"....++++####@@@@@@@@@@@@@@@@@@@@@@@@@@@@####@@@@@@@@####++++....",
"....++++####@@@@@@@@@@@@@@@@@@@@@@@@@@@@####@@@@@@@@####++++....",
"....++++####@@@@@@@@@@@@@@@@@@@@@@@@@@@@####@@@@@@@@####++++....",
"....++++####@@@@@@@@@@@@@@@@@@@@@@@@@@@@####@@@@@@@@####++++....",
"....++++####@@@@@@@@@@@@@@@@@@@@@@@@@@@@@@@@@@@@@@@@####++++....",
"....++++####@@@@@@@@@@@@@@@@@@@@@@@@@@@@@@@@@@@@@@@@####++++....",
"....++++####@@@@@@@@@@@@@@@@@@@@@@@@@@@@@@@@@@@@@@@@####++++....",
"....++++####@@@@@@@@@@@@@@@@@@@@@@@@@@@@@@@@@@@@@@@@####++++....",
"....++++####@@@@@@@@@@@@@@@@@@@@@@@@@@@@@@@@@@@@@@@@####++++....",
"....++++####@@@@@@@@@@@@@@@@@@@@@@@@@@@@@@@@@@@@@@@@####++++....",
"....++++####@@@@@@@@@@@@@@@@@@@@@@@@@@@@@@@@@@@@@@@@####++++....",
"....++++####@@@@@@@@@@@@@@@@@@@@@@@@@@@@@@@@@@@@@@@@####++++....",
"....++++####@@@@@@@@@@@@@@@@@@@@@@@@@@@@@@@@$$$$%%%%####++++....",
"....++++####@@@@@@@@@@@@@@@@@@@@@@@@@@@@@@@@$$$$%%%%####++++....",
"....++++####@@@@@@@@@@@@@@@@@@@@@@@@@@@@@@@@$$$$%%%%####++++....",
"....++++####@@@@@@@@@@@@@@@@@@@@@@@@@@@@@@@@$$$$%%%%####++++....",
"....++++####@@@@@@@@@@@@@@@@@@@@@@@@@@@@@@@@%%%%%%%%####++++....",
"....++++####@@@@@@@@@@@@@@@@@@@@@@@@@@@@@@@@%%%%%%%%####++++....",
"....++++####@@@@@@@@@@@@@@@@@@@@@@@@@@@@@@@@%%%%%%%%####++++....",
"....++++####@@@@@@@@@@@@@@@@@@@@@@@@@@@@@@@@%%%%%%%%####++++....",
"....++++####@@@@@@@@@@@@@@@@@@@@@@@@@@@@@@@@############++++....",
"....++++####@@@@@@@@@@@@@@@@@@@@@@@@@@@@@@@@############++++....",
"....++++####@@@@@@@@@@@@@@@@@@@@@@@@@@@@@@@@############++++....",
"....++++####@@@@@@@@@@@@@@@@@@@@@@@@@@@@@@@@############++++....",
"....++++####@@@@@@@@####@@@@@@@@@@@@@@@@@@@@@@@@@@@@####++++....",
"....++++####@@@@@@@@####@@@@@@@@@@@@@@@@@@@@@@@@@@@@####++++....",
"....++++####@@@@@@@@####@@@@@@@@@@@@@@@@@@@@@@@@@@@@####++++....",
"....++++####@@@@@@@@####@@@@@@@@@@@@@@@@@@@@@@@@@@@@####++++....",
"....++++####@@@@@@@@####@@@@@@@@@@@@@@@@@@@@@@@@@@@@####++++....",
"....++++####@@@@@@@@####@@@@@@@@@@@@@@@@@@@@@@@@@@@@####++++....",
"....++++####@@@@@@@@####@@@@@@@@@@@@@@@@@@@@@@@@@@@@####++++....",
"....++++####@@@@@@@@####@@@@@@@@@@@@@@@@@@@@@@@@@@@@####++++....",
"....++++####@@@@@@@@####@@@@@@@@@@@@@@@@####@@@@@@@@####++++....",
"....++++####@@@@@@@@####@@@@@@@@@@@@@@@@####@@@@@@@@####++++....",
"....++++####@@@@@@@@####@@@@@@@@@@@@@@@@####@@@@@@@@####++++....",
"....++++####@@@@@@@@####@@@@@@@@@@@@@@@@####@@@@@@@@####++++....",
"....&&&&&&&&&&&&&&&&&&&&&&&&&&&&&&&&&&&&&&&&&&&&&&&&&&&&&&&&....",
"....&&&&&&&&&&&&&&&&&&&&&&&&&&&&&&&&&&&&&&&&&&&&&&&&&&&&&&&&....",
"....&&&&&&&&&&&&&&&&&&&&&&&&&&&&&&&&&&&&&&&&&&&&&&&&&&&&&&&&....",
"....&&&&&&&&&&&&&&&&&&&&&&&&&&&&&&&&&&&&&&&&&&&&&&&&&&&&&&&&....",
"&&&&********************************************************&&&&",
"&&&&********************************************************&&&&",
"&&&&********************************************************&&&&",
"&&&&********************************************************&&&&"};
