/* XPM */
static char * exit_o_xpm[] = {
"64 64 7 1",
" 	c #677598",
".	c #21110D",
"+	c #755338",
"@	c #503625",
"#	c #342319",
"$	c #000000",
"%	c #509B66",
"    ........................................................    ",
"    ........................................................    ",
"    ........................................................    ",
"    ........................................................    ",
"....++++++++++++++++++++++++++++++++++++++++++++++++++++++++....",
"....++++++++++++++++++++++++++++++++++++++++++++++++++++++++....",
"....++++++++++++++++++++++++++++++++++++++++++++++++++++++++....",
"....++++++++++++++++++++++++++++++++++++++++++++++++++++++++....",
"....++++++++++++++++++++++++++++++++++++++++++++++++++++++++....",
"....++++++++++++++++++++++++++++++++++++++++++++++++++++++++....",
"....++++++++++++++++++++++++++++++++++++++++++++++++++++++++....",
"....++++++++++++++++++++++++++++++++++++++++++++++++++++++++....",
"....@@@@################################################@@@@....",
"....@@@@################################################@@@@....",
"....@@@@################################################@@@@....",
"....@@@@################################################@@@@....",
"....++++####@@@@$$$$$$$$$$$$$$$$$$$$$$$$$$$$$$$$$$$$$$$$++++....",
"....++++####@@@@$$$$$$$$$$$$$$$$$$$$$$$$$$$$$$$$$$$$$$$$++++....",
"....++++####@@@@$$$$$$$$$$$$$$$$$$$$$$$$$$$$$$$$$$$$$$$$++++....",
"....++++####@@@@$$$$$$$$$$$$$$$$$$$$$$$$$$$$$$$$$$$$$$$$++++....",
"....++++####@@@@$$$$$$$$$$$$$$$$$$$$$$$$$$$$$$$$$$$$$$$$++++....",
"....++++####@@@@$$$$$$$$$$$$$$$$$$$$$$$$$$$$$$$$$$$$$$$$++++....",
"....++++####@@@@$$$$$$$$$$$$$$$$$$$$$$$$$$$$$$$$$$$$$$$$++++....",
"....++++####@@@@$$$$$$$$$$$$$$$$$$$$$$$$$$$$$$$$$$$$$$$$++++....",
"....++++####@@@@$$$$$$$$$$$$$$$$$$$$$$$$$$$$$$$$$$$$$$$$++++....",
"....++++####@@@@$$$$$$$$$$$$$$$$$$$$$$$$$$$$$$$$$$$$$$$$++++....",
"....++++####@@@@$$$$$$$$$$$$$$$$$$$$$$$$$$$$$$$$$$$$$$$$++++....",
"....++++####@@@@$$$$$$$$$$$$$$$$$$$$$$$$$$$$$$$$$$$$$$$$++++....",
"....++++####@@@@$$$$$$$$$$$$$$$$$$$$$$$$$$$$$$$$$$$$$$$$++++....",
"....++++####@@@@$$$$$$$$$$$$$$$$$$$$$$$$$$$$$$$$$$$$$$$$++++....",
"....++++####@@@@$$$$$$$$$$$$$$$$$$$$$$$$$$$$$$$$$$$$$$$$++++....",
"....++++####@@@@$$$$$$$$$$$$$$$$$$$$$$$$$$$$$$$$$$$$$$$$++++....",
"....++++####@@@@$$$$$$$$$$$$$$$$$$$$$$$$$$$$$$$$$$$$$$$$++++....",
"....++++####@@@@$$$$$$$$$$$$$$$$$$$$$$$$$$$$$$$$$$$$$$$$++++....",
"....++++####@@@@$$$$$$$$$$$$$$$$$$$$$$$$$$$$$$$$$$$$$$$$++++....",
"....++++####@@@@$$$$$$$$$$$$$$$$$$$$$$$$$$$$$$$$$$$$$$$$++++....",
"....++++####@@@@$$$$$$$$$$$$$$$$$$$$$$$$$$$$$$$$$$$$$$$$++++....",
"....++++####@@@@$$$$$$$$$$$$$$$$$$$$$$$$$$$$$$$$$$$$$$$$++++....",
"....++++####@@@@$$$$$$$$$$$$$$$$$$$$$$$$$$$$$$$$$$$$$$$$++++....",
"....++++####@@@@$$$$$$$$$$$$$$$$$$$$$$$$$$$$$$$$$$$$$$$$++++....",
"....++++####@@@@$$$$$$$$$$$$$$$$$$$$$$$$$$$$$$$$$$$$$$$$++++....",
"....++++####@@@@$$$$$$$$$$$$$$$$$$$$$$$$$$$$$$$$$$$$$$$$++++....",
"....++++####@@@@$$$$$$$$$$$$$$$$$$$$$$$$$$$$$$$$$$$$$$$$++++....",
"....++++####@@@@$$$$$$$$$$$$$$$$$$$$$$$$$$$$$$$$$$$$$$$$++++....",
"....++++####@@@@$$$$$$$$$$$$$$$$$$$$$$$$$$$$$$$$$$$$$$$$++++....",
"....++++####@@@@$$$$$$$$$$$$$$$$$$$$$$$$$$$$$$$$$$$$$$$$++++....",
"....++++####@@@@$$$$$$$$$$$$$$$$$$$$$$$$$$$$$$$$$$$$$$$$++++....",
"....++++####@@@@$$$$$$$$$$$$$$$$$$$$$$$$$$$$$$$$$$$$$$$$++++....",
"....++++####@@@@$$$$$$$$$$$$$$$$$$$$$$$$$$$$$$$$$$$$$$$$++++....",
"....++++####@@@@$$$$$$$$$$$$$$$$$$$$$$$$$$$$$$$$$$$$$$$$++++....",
"....++++####@@@@$$$$$$$$$$$$$$$$$$$$$$$$$$$$$$$$$$$$$$$$++++....",
"....++++####@@@@$$$$$$$$$$$$$$$$$$$$$$$$$$$$$$$$$$$$$$$$++++....",
"....++++####@@@@$$$$$$$$$$$$$$$$$$$$$$$$$$$$$$$$$$$$$$$$++++....",
"....++++####@@@@$$$$$$$$$$$$$$$$$$$$$$$$$$$$$$$$$$$$$$$$++++....",
"....++++####@@@@$$$$$$$$$$$$$$$$$$$$$$$$$$$$$$$$$$$$$$$$++++....",
"....++++####@@@@$$$$$$$$$$$$$$$$$$$$$$$$$$$$$$$$$$$$$$$$++++....",
"....$$$$$$$$$$$$$$$$$$$$$$$$$$$$$$$$$$$$$$$$$$$$$$$$$$$$$$$$....",
"....$$$$$$$$$$$$$$$$$$$$$$$$$$$$$$$$$$$$$$$$$$$$$$$$$$$$$$$$....",
"....$$$$$$$$$$$$$$$$$$$$$$$$$$$$$$$$$$$$$$$$$$$$$$$$$$$$$$$$....",
"....$$$$$$$$$$$$$$$$$$$$$$$$$$$$$$$$$$$$$$$$$$$$$$$$$$$$$$$$....",
"$$$$%%%%%%%%%%%%%%%%%%%%%%%%%%%%%%%%%%%%%%%%%%%%%%%%%%%%%%%%$$$$",
"$$$$%%%%%%%%%%%%%%%%%%%%%%%%%%%%%%%%%%%%%%%%%%%%%%%%%%%%%%%%$$$$",
"$$$$%%%%%%%%%%%%%%%%%%%%%%%%%%%%%%%%%%%%%%%%%%%%%%%%%%%%%%%%$$$$",
"$$$$%%%%%%%%%%%%%%%%%%%%%%%%%%%%%%%%%%%%%%%%%%%%%%%%%%%%%%%%$$$$"};
