/* XPM */
static char * wall_xpm[] = {
"64 64 9 1",
" 	c #509B66",
".	c #082B0C",
"+	c #53A03B",
"@	c #347B2C",
"#	c #114517",
"$	c #21110D",
"%	c #342319",
"&	c #3A714B",
"*	c #503625",
"                                      ......                    ",
"                                      ......                    ",
"                ........            ..++++++..                  ",
"                ........            ..++++++..                  ",
"              ..++++++++..    ....  ++++++++++......            ",
"              ..++++++++..    ....  ++++++++++......            ",
"              ..++++++++++....@@@@..++++++++++..@@@@..          ",
"              ..++++++++++....@@@@..++++++++++..@@@@..          ",
"          ......++++++++++++..++++..++++++++..@@++++@@..        ",
"          ......++++++++++++..++++..++++++++..@@++++@@..        ",
"        ..@@++++@@++++++++++++++++@@++++++++++++++++++..        ",
"        ..@@++++@@++++++++++++++++@@++++++++++++++++++..        ",
"    ......++++++++++++++++++++++++++++++++++++++++++@@..        ",
"    ......++++++++++++++++++++++++++++++++++++++++++@@..        ",
"  ..++++..++++++++++++++++++++++++++++++++++++++++@@....        ",
"  ..++++..++++++++++++++++++++++++++++++++++++++++@@....        ",
"  ..++++++++++++++++++++++++++++++++++++++++++++++++++++..      ",
"  ..++++++++++++++++++++++++++++++++++++++++++++++++++++..      ",
"  ..++@@++++++++++++++++++++++++++++++++++++++++++++++++++..    ",
"  ..++@@++++++++++++++++++++++++++++++++++++++++++++++++++..    ",
"    ..++++++++++++++++++++++++++++++++++++++++++++++++++++++..  ",
"    ..++++++++++++++++++++++++++++++++++++++++++++++++++++++..  ",
"    ..++++++++++++++++++++++++++++++++++++++++++++@@++++++++..  ",
"    ..++++++++++++++++++++++++++++++++++++++++++++@@++++++++..  ",
"  ..@@++++@@++++++++++++++++++++++++++++++++++++++++@@++++++..  ",
"  ..@@++++@@++++++++++++++++++++++++++++++++++++++++@@++++++..  ",
"  ..++++++@@@@++++++++++++++++++++++++++@@++++++++++####@@@@..  ",
"  ..++++++@@@@++++++++++++++++++++++++++@@++++++++++####@@@@..  ",
"..@@++++@@++++++++++++++++++++++++++++++++##@@++++@@++++....    ",
"..@@++++@@++++++++++++++++++++++++++++++++##@@++++@@++++....    ",
"..@@@@####++++++++++++++++++++++++++++++++++####@@@@++++++..    ",
"..@@@@####++++++++++++++++++++++++++++++++++####@@@@++++++..    ",
"....####++++++++@@++++++++++++++++++++++++++++@@@@++++++@@##..  ",
"....####++++++++@@++++++++++++++++++++++++++++@@@@++++++@@##..  ",
"  ....##++++++++@@++++++++@@++++++++++++@@++++++@@@@@@@@@@@@..  ",
"  ....##++++++++@@++++++++@@++++++++++++@@++++++@@@@@@@@@@@@..  ",
"  ..@@@@++++++@@++++++++++++@@++++++++++++@@++++@@@@####@@@@..  ",
"  ..@@@@++++++@@++++++++++++@@++++++++++++@@++++@@@@####@@@@..  ",
"..@@++++@@@@@@@@++++@@++++++@@++++++++++++@@@@@@++++@@######..  ",
"..@@++++@@@@@@@@++++@@++++++@@++++++++++++@@@@@@++++@@######..  ",
"..##++++++++@@@@@@++++@@@@@@@@++++++++++@@@@@@@@++++++@@####..  ",
"..##++++++++@@@@@@++++@@@@@@@@++++++++++@@@@@@@@++++++@@####..  ",
"  ..@@++++++++@@++++++++@@@@++@@++++@@@@@@##++++@@++++@@....$$  ",
"  ..@@++++++++@@++++++++@@@@++@@++++@@@@@@##++++@@++++@@....$$  ",
"  $$..@@##++++@@++++++++@@++++++@@++++####@@++++++++@@@@##..%%$$",
"  $$..@@##++++@@++++++++@@++++++@@++++####@@++++++++@@@@##..%%$$",
"$$..@@@@@@##@@@@++++++@@##++++++++++++++..@@@@##++@@@@####..%%$$",
"$$..@@@@@@##@@@@++++++@@##++++++++++++++..@@@@##++@@@@####..%%$$",
"$$..@@@@@@..@@@@##@@@@####@@++++@@++++@@....##@@@@########..%%$$",
"$$..@@@@@@..@@@@##@@@@####@@++++@@++++@@....##@@@@########..%%$$",
"$$..@@@@##..####@@@@@@####@@@@@@@@##@@@@##..##@@@@..######..&&&&",
"$$..@@@@##..####@@@@@@####@@@@@@@@##@@@@##..##@@@@..######..&&&&",
"$$%%..####....##@@@@@@@@####@@@@@@########....####........&&&&&&",
"$$%%..####....##@@@@@@@@####@@@@@@########....####........&&&&&&",
"&&&&&&....%%..####..@@@@####..##########..%%%%....$$&&&&&&&&&&&&",
"&&&&&&....%%..####..@@@@####..##########..%%%%....$$&&&&&&&&&&&&",
"  &&&&&&$$****......######..%%..........$$%%******%%$$&&&&&&&&  ",
"  &&&&&&$$****......######..%%..........$$%%******%%$$&&&&&&&&  ",
"    &&&&$$******%%%%......******%%$$&&&&&&$$%%******$$&&&&&&    ",
"    &&&&$$******%%%%......******%%$$&&&&&&$$%%******$$&&&&&&    ",
"      &&&&&&**%%%%$$&&&&$$****%%$$&&&&&&&&&&&&&&&&&&&&&&        ",
"      &&&&&&**%%%%$$&&&&$$****%%$$&&&&&&&&&&&&&&&&&&&&&&        ",
"          &&&&&&&&&&&&&&&&&&&&&&&&&&&&&&&&&&&&&&&&&&            ",
"          &&&&&&&&&&&&&&&&&&&&&&&&&&&&&&&&&&&&&&&&&&            "};
