/* XPM */
static char * strike_back_4_xpm[] = {
"64 64 8 1",
" 	c #509B66",
".	c #000000",
"+	c #573A23",
"@	c #402717",
"#	c #AC7B5D",
"$	c #C1AC8F",
"%	c #1D438A",
"&	c #3A714B",
"                                                                ",
"                                                                ",
"                                                                ",
"                                                                ",
"                                                                ",
"                                                                ",
"                                                                ",
"                                                                ",
"                                                                ",
"                                                                ",
"                                                                ",
"                                                                ",
"                                                                ",
"                          .....   ..........                    ",
"                          .....   ..........                    ",
"                          .....   ..........                    ",
"                    ........+++...@@++++++..                    ",
"                    ........+++...@@++++++..                    ",
"                    ........+++...@@++++++..                    ",
"                  ..@@@++++++++@@@+++++.....                    ",
"                  ..@@@++++++++@@@+++++.....                    ",
"                  ..++++++++++++++++++++++@@...                 ",
"                  ..++++++++++++++++++++++@@...                 ",
"                  ..++++++++++++++++++++++@@...                 ",
"               ...@@++++++++++++++++++++++++@@@...              ",
"               ...@@++++++++++++++++++++++++@@@...              ",
"               ...@@++++++++++++++++++++++++@@@...              ",
"               ...@@++++++++++++++++++++++++@@@...              ",
"               ...@@++++++++++++++++++++++++@@@...              ",
"               ...@@++++++++++++++++++++++++@@@...              ",
"               ...@@++++++++++++++++++++++++@@@...              ",
"               ...@@++++++++++++++++++++++++@@@...              ",
"               ...@@@@@+++++++++++++++++++@@@@@...              ",
"               ...@@@@@+++++++++++++++++++@@@@@...              ",
"               ...@@@@@+++++++++++++++++++@@@@@...              ",
"                  ..@@@@@@@@++++++++@@@@@@@@@@@...              ",
"                  ..@@@@@@@@++++++++@@@@@@@@@@@...              ",
"                  ..@@@@@@@@@@@@@@@@@@@@@@@@...                 ",
"                  ..@@@@@@@@@@@@@@@@@@@@@@@@...                 ",
"                  ..@@@@@@@@@@@@@@@@@@@@@@@@...                 ",
"                  ..###@@@@@@@@@@@@@@@@@@@##...                 ",
"                  ..###@@@@@@@@@@@@@@@@@@@##...                 ",
"                  ..###@@@@@@@@@@@@@@@@@@@##...                 ",
"                  ..$$$#####@@@@@@@@######..                    ",
"                  ..$$$#####@@@@@@@@######..                    ",
"               ...##$$$+++#############+++.....                 ",
"               ...##$$$+++#############+++.....                 ",
"               ...##$$$+++#############+++.....                 ",
"               ...#####+++++++++++++++++++#####...              ",
"               ...#####+++++++++++++++++++#####...              ",
"               ...#####+++++++++++++++++++#####...              ",
"                  .....@@@++++++++@@@@@%%%#####...              ",
"                  .....@@@++++++++@@@@@%%%#####...              ",
"                  &&...%%%%%%%%...++++++++.....                 ",
"                  &&...%%%%%%%%...++++++++.....                 ",
"                  &&...%%%%%%%%...++++++++.....                 ",
"               &&&&&...@@@@@......++++++++..&&&&&&              ",
"               &&&&&...@@@@@......++++++++..&&&&&&              ",
"               &&&&&...@@@@@......++++++++..&&&&&&              ",
"               &&&&&&&&&&&&&&&&&&&&&&&&&&&&&&&&&&&              ",
"               &&&&&&&&&&&&&&&&&&&&&&&&&&&&&&&&&&&              ",
"                  &&&&&&&&&&&&&&&&&&&&&&&&&&&&&                 ",
"                  &&&&&&&&&&&&&&&&&&&&&&&&&&&&&                 ",
"                  &&&&&&&&&&&&&&&&&&&&&&&&&&&&&                 "};
