/* XPM */
static char * strike_front_1_xpm[] = {
"64 64 13 1",
" 	c #509B66",
".	c #000000",
"+	c #573A23",
"@	c #402717",
"#	c #AC7B5D",
"$	c #DBD2C7",
"%	c #21110D",
"&	c #C1AC8F",
"*	c #A4A8B5",
"=	c #787E97",
"-	c #2C65B5",
";	c #1D438A",
">	c #3A714B",
"                      ..........  .....                         ",
"                      ..........  .....                         ",
"                      ...+++++@@..+++.......                    ",
"                      ...+++++@@..+++.......                    ",
"                      ...+++++@@..+++.......                    ",
"                      .....+++++@@++++++++@@...                 ",
"                      .....+++++@@++++++++@@...                 ",
"                    ..@@@+++++++++++++++++++...                 ",
"                    ..@@@+++++++++++++++++++...                 ",
"                    ..@@@+++++++++++++++++++...                 ",
"                 ...@@++++++++++@@++++++++++@@@..               ",
"                 ...@@++++++++++@@++++++++++@@@..               ",
"                 ...+++++++@@@@@@@@@@++++++++++..               ",
"                 ...+++++++@@@@@@@@@@++++++++++..               ",
"                 ...+++++++@@@@@@@@@@++++++++++..               ",
"                 ...+++++++@@@#########@@@+++++..               ",
"                 ...+++++++@@@#########@@@+++++..               ",
"            ........+++++@@###############@@+++..               ",
"            ........+++++@@###############@@+++..               ",
"            ........+++++@@###############@@+++..               ",
"            ...$$...@@+++##%%%&&&&&&&%%###@@...                 ",
"            ...$$...@@+++##%%%&&&&&&&%%###@@...                 ",
"            ...$$$$$..+++&&%%%&&&&&&&%%&&&##...                 ",
"            ...$$$$$..+++&&%%%&&&&&&&%%&&&##...                 ",
"            ...$$$$$..+++&&%%%&&&&&&&%%&&&##...                 ",
"            ...$$$$$**###&&&&&&&&&&&&&&&&&##...                 ",
"            ...$$$$$**###&&&&&&&&&&&&&&&&&##...                 ",
"               ..$$$**@@@##&&&&&&&&&&&&###..                    ",
"               ..$$$**@@@##&&&&&&&&&&&&###..                    ",
"               ..$$$**@@@##&&&&&&&&&&&&###..                    ",
"                 ...@@&&&&&############@@@..                    ",
"                 ...@@&&&&&############@@@..                    ",
"               ..@@@@@&&&&&+++=======+++++@@...                 ",
"               ..@@@@@&&&&&+++=======+++++@@...                 ",
"               ..........+++++==*****+++++++...                 ",
"               ..........+++++==*****+++++++...                 ",
"               ..........+++++==*****+++++++...                 ",
"                         ..-----;;;;;-----;;...                 ",
"                         ..-----;;;;;-----;;...                 ",
"                      >>>..+++++--...@@@@@@@...>>               ",
"                      >>>..+++++--...@@@@@@@...>>               ",
"                      >>>..+++++--...@@@@@@@...>>               ",
"                    >>>>>..+++++@@.....@@@@@...>>>>>            ",
"                    >>>>>..+++++@@.....@@@@@...>>>>>            ",
"                    >>>>>>>>>>>>>>>>>>>>>>>>>>>>>>>>            ",
"                    >>>>>>>>>>>>>>>>>>>>>>>>>>>>>>>>            ",
"                    >>>>>>>>>>>>>>>>>>>>>>>>>>>>>>>>            ",
"                      >>>>>>>>>>>>>>>>>>>>>>>>>>>               ",
"                      >>>>>>>>>>>>>>>>>>>>>>>>>>>               ",
"                                                                ",
"                                                                ",
"                                                                ",
"                                                                ",
"                                                                ",
"                                                                ",
"                                                                ",
"                                                                ",
"                                                                ",
"                                                                ",
"                                                                ",
"                                                                ",
"                                                                ",
"                                                                ",
"                                                                "};
