/* XPM */
static char * strike_back_2_xpm[] = {
"64 64 12 1",
" 	c #509B66",
".	c #FFFFFF",
"+	c #000000",
"@	c #573A23",
"#	c #402717",
"$	c #AC7B5D",
"%	c #DBD2C7",
"&	c #C1AC8F",
"*	c #A4A8B5",
"=	c #2C65B5",
"-	c #1D438A",
";	c #3A714B",
"                                                                ",
"                                                                ",
"                                                                ",
"                                                                ",
"                                                                ",
"                                                                ",
"                                                                ",
"                                                                ",
"                          .....+++++...+++++++++++              ",
"                          .....+++++...+++++++++++              ",
"                          .....+++++...+++++++++++              ",
"                    ......++++++++@@+++###@@@@@+++..            ",
"                    ......++++++++@@+++###@@@@@+++..            ",
"                  .....+++##@@@@@@@@###@@@@@++++++.....         ",
"                  .....+++##@@@@@@@@###@@@@@++++++.....         ",
"                  .....+++##@@@@@@@@###@@@@@++++++.....         ",
"               ........+++@@@@@@@@@@@@@@@@@@@@@###++......      ",
"               ........+++@@@@@@@@@@@@@@@@@@@@@###++......      ",
"               ........+++@@@@@@@@@@@@@@@@@@@@@###++......      ",
"            ........+++###@@@@@@@@@@@@@@@@@@@@@@@@##+++...      ",
"            ........+++###@@@@@@@@@@@@@@@@@@@@@@@@##+++...      ",
"            ........+++###@@@@@@@@@@@@@@@@@@@@@@@@##+++.....    ",
"            ........+++###@@@@@@@@@@@@@@@@@@@@@@@@##+++.....    ",
"            ........+++###@@@@@@@@@@@@@@@@@@@@@@@@##+++.....    ",
"          ........  +++###@@@@@@@@@@@@@@@@@@@@@@@@##+++.....    ",
"          ........  +++###@@@@@@@@@@@@@@@@@@@@@@@@##+++.....    ",
"          ........  +++###@@@@@@@@@@@@@@@@@@@@@@@@##+++.....    ",
"          .....     +++#####@@@@@@@@@@@@@@@@@@@#####+++.....    ",
"          .....     +++#####@@@@@@@@@@@@@@@@@@@#####+++.....    ",
"          ..           +++########@@@@@@@@##########+++.....    ",
"          ..           +++########@@@@@@@@##########+++.....    ",
"          ..           +++########@@@@@@@@##########+++.....    ",
"                       +++########################++      ..    ",
"                       +++########################++      ..    ",
"                       +++########################++      ..    ",
"                       +++$$###################$$$++      ..    ",
"                       +++$$###################$$$++      ..    ",
"               +++++      ++$$$$$$########$$$$$+++              ",
"               +++++      ++$$$$$$########$$$$$+++              ",
"               +++++      ++$$$$$$########$$$$$+++              ",
"  ++++++++++++++++##++++++++@@@$$$$$$$$$$$$$@@@+++++            ",
"  ++++++++++++++++##++++++++@@@$$$$$$$$$$$$$@@@+++++            ",
"  ++++++++++++++++##++++++++@@@$$$$$$$$$$$$$@@@+++++            ",
"  ++%%%%%%%%%%%%%%#####&&&&&@@@@@@@@@@@@@@@@@@@$$$$$+++         ",
"  ++%%%%%%%%%%%%%%#####&&&&&@@@@@@@@@@@@@@@@@@@$$$$$+++         ",
"  ++******%%%%%%%%#####&&&&&@@@@@@@@@@@@@@@@@@@$$$$$+++         ",
"  ++******%%%%%%%%#####&&&&&@@@@@@@@@@@@@@@@@@@$$$$$+++         ",
"  ++******%%%%%%%%#####&&&&&@@@@@@@@@@@@@@@@@@@$$$$$+++         ",
"    ++++++++******%%###+++##@@@@@@@@@@@@@@@@###+++++            ",
"    ++++++++******%%###+++##@@@@@@@@@@@@@@@@###+++++            ",
"    ++++++++******%%###+++##@@@@@@@@@@@@@@@@###+++++            ",
"            ++++++++###+++########==---========+++              ",
"            ++++++++###+++########==---========+++              ",
"                    ++++++++--------+++@@@@@@@@+++;;            ",
"                    ++++++++--------+++@@@@@@@@+++;;            ",
"                    ++++++++--------+++@@@@@@@@+++;;            ",
"                    ;;;;;;++######+++++@@@@@@@@+++;;;;;         ",
"                    ;;;;;;++######+++++@@@@@@@@+++;;;;;         ",
"                    ;;;;;;++######+++++@@@@@@@@+++;;;;;         ",
"                    ;;;;;;;;;;;;;;;;;;;;;;;;;;;;;;;;;;;         ",
"                    ;;;;;;;;;;;;;;;;;;;;;;;;;;;;;;;;;;;         ",
"                       ;;;;;;;;;;;;;;;;;;;;;;;;;;;;;            ",
"                       ;;;;;;;;;;;;;;;;;;;;;;;;;;;;;            ",
"                       ;;;;;;;;;;;;;;;;;;;;;;;;;;;;;            "};
