/* XPM */
static char * strike_back_1_xpm[] = {
"64 64 10 1",
" 	c #509B66",
".	c #000000",
"+	c #573A23",
"@	c #402717",
"#	c #AC7B5D",
"$	c #A4A8B5",
"%	c #DBD2C7",
"&	c #1D438A",
"*	c #2C65B5",
"=	c #3A714B",
"                                                                ",
"                                                                ",
"                                                                ",
"                                                                ",
"                                                                ",
"                                                                ",
"                                                                ",
"                                                                ",
"                                                                ",
"                                                                ",
"                                                                ",
"                          .....   ...........                   ",
"                          .....   ...........                   ",
"                     ........++...@@@+++++...                   ",
"                     ........++...@@@+++++...                   ",
"                     ........++...@@@+++++...                   ",
"                  ...@@++++++++@@@+++++......                   ",
"                  ...@@++++++++@@@+++++......                   ",
"                  ...@@++++++++@@@+++++......                   ",
"                  ...+++++++++++++++++++++@@@..                 ",
"                  ...+++++++++++++++++++++@@@..                 ",
"               ...@@@++++++++++++++++++++++++@@...              ",
"               ...@@@++++++++++++++++++++++++@@...              ",
"               ...@@@++++++++++++++++++++++++@@...              ",
"               ...@@@++++++++++++++++++++++++@@...              ",
"               ...@@@++++++++++++++++++++++++@@...              ",
"               ...@@@++++++++++++++++++++++++@@...              ",
"               ...@@@++++++++++++++++++++++++@@...              ",
"               ...@@@++++++++++++++++++++++++@@...              ",
"               ...@@@@@+++++++++++++++++++@@@@@...              ",
"               ...@@@@@+++++++++++++++++++@@@@@...              ",
"               ...@@@@@+++++++++++++++++++@@@@@...              ",
"                  ...@@@@@@@@++++++++@@@@@@@@@@...              ",
"                  ...@@@@@@@@++++++++@@@@@@@@@@...              ",
"                  ...@@@@@@@@++++++++@@@@@@@@@@...              ",
"                  ...@@@@@@@@@@@@@@@@@@@@@@@@..                 ",
"                  ...@@@@@@@@@@@@@@@@@@@@@@@@..                 ",
"                  ...##@@@@@@@@@@@@@@@@@@@###.....              ",
"                  ...##@@@@@@@@@@@@@@@@@@@###.....              ",
"                  ...##@@@@@@@@@@@@@@@@@@@###.....              ",
"                     ..######@@@@@@@@########..@@@...           ",
"                     ..######@@@@@@@@########..@@@...           ",
"                     ..######@@@@@@@@########..@@@...           ",
"                     ..+++#############+++...@@@@@...           ",
"                     ..+++#############+++...@@@@@...           ",
"                  ...+++++++++++++++++++++@@@@@@@@...           ",
"                  ...+++++++++++++++++++++@@@@@@@@...           ",
"                  ...+++++++++++++++++++++@@@@@@@@...           ",
"                  ...++++++++++++++++++@@@@@@@@$$$%%%..         ",
"                  ...++++++++++++++++++@@@@@@@@$$$%%%..         ",
"                  ...++++++++++++++++++@@@@@@@@$$$%%%..         ",
"                  ...&&******&&******&&...@@@..$$$%%%%%...      ",
"                  ...&&******&&******&&...@@@..$$$%%%%%...      ",
"               ===...&&&&&&&&..++++++++........   %%%%%...      ",
"               ===...&&&&&&&&..++++++++........   %%%%%...      ",
"               ===...&&&&&&&&..++++++++........   %%%%%...      ",
"             =====...@@@@@.....++++++++...=====...$$$%%...      ",
"             =====...@@@@@.....++++++++...=====...$$$%%...      ",
"             =====...@@@@@.....++++++++...=====...$$$%%...      ",
"             ==================================   ........      ",
"             ==================================   ........      ",
"               ==============================                   ",
"               ==============================                   ",
"               ==============================                   "};
