/* XPM */
static char * strike_back_3_xpm[] = {
"64 64 11 1",
" 	c #509B66",
".	c #000000",
"+	c #573A23",
"@	c #402717",
"#	c #FFFFFF",
"$	c #AC7B5D",
"%	c #C1AC8F",
"&	c #DBD2C7",
"*	c #1D438A",
"=	c #A4A8B5",
"-	c #3A714B",
"                                                                ",
"                                                                ",
"                                                                ",
"                                                                ",
"                                                                ",
"                                                                ",
"                                                                ",
"                                                                ",
"                                                                ",
"                                                                ",
"                                                                ",
"                                .....   ...........             ",
"                                .....   ...........             ",
"                           ........++...@@@+++++...             ",
"                           ........++...@@@+++++...             ",
"                           ........++...@@@+++++...             ",
"                        ...@@++++++++@@@+++++......             ",
"                        ...@@++++++++@@@+++++......             ",
"                        ...@@++++++++@@@+++++......             ",
"                        ...+++++++++++++++++++++@@@..           ",
"                        ...+++++++++++++++++++++@@@..           ",
"                     ...@@@++++++++++++++++++++++++@@...        ",
"                     ...@@@++++++++++++++++++++++++@@...        ",
"                     ...@@@++++++++++++++++++++++++@@...        ",
"                     ...@@@++++++++++++++++++++++++@@...        ",
"                     ...@@@++++++++++++++++++++++++@@...        ",
"                     ...@@@++++++++++++++++++++++++@@...        ",
"             ########...@@@++++++++++++++++++++++++@@...        ",
"             ########...@@@++++++++++++++++++++++++@@...        ",
"           ########  ...@@@@@+++++++++++++++++++@@@@@...        ",
"           ########  ...@@@@@+++++++++++++++++++@@@@@...        ",
"           ########  ...@@@@@+++++++++++++++++++@@@@@...        ",
"        ########        ...@@@@@@@@++++++++@@@@@@@@@@...        ",
"        ########        ...@@@@@@@@++++++++@@@@@@@@@@...        ",
"        ########        ...@@@@@@@@++++++++@@@@@@@@@@...        ",
"        #####           ...@@@@@@@@@@@@@@@@@@@@@@@@..           ",
"        #####           ...@@@@@@@@@@@@@@@@@@@@@@@@..           ",
"     ########           ...$$@@@@@@@@@@@@@@@@@@@$$$..           ",
"     ########           ...$$@@@@@@@@@@@@@@@@@@@$$$..           ",
"     ########           ...$$@@@@@@@@@@@@@@@@@@@$$$..           ",
"     ######                ..$$$$$$@@@@@@@@$$$$$...             ",
"     ######                ..$$$$$$@@@@@@@@$$$$$...             ",
"     ######                ..$$$$$$@@@@@@@@$$$$$...             ",
"     ######             ...%%+++$$$$$$$$$$$$$+++.....           ",
"     ######             ...%%+++$$$$$$$$$$$$$+++.....           ",
"        ###        .....$$$%%+++++++++++++++++++$$$$$...        ",
"        ###        .....$$$%%+++++++++++++++++++$$$$$...        ",
"        ###        .....$$$%%+++++++++++++++++++$$$$$...        ",
"                ...@@@@@$$$$$+++++++++++++++++++$$$$$...        ",
"                ...@@@@@$$$$$+++++++++++++++++++$$$$$...        ",
"                ...@@@@@$$$$$+++++++++++++++++++$$$$$...        ",
"           .....&&&&&@@@@@@..@@@++++++++@@@@@***.....           ",
"           .....&&&&&@@@@@@..@@@++++++++@@@@@***.....           ",
"        ...&&&&&&&&=====@@@@@********...++++++++...--           ",
"        ...&&&&&&&&=====@@@@@********...++++++++...--           ",
"        ...&&&&&&&&=====@@@@@********...++++++++...--           ",
"        ...&&========........@@@@@@.....++++++++...-----        ",
"        ...&&========........@@@@@@.....++++++++...-----        ",
"        ...&&========........@@@@@@.....++++++++...-----        ",
"        .............-----------------------------------        ",
"        .............-----------------------------------        ",
"                        -----------------------------           ",
"                        -----------------------------           ",
"                        -----------------------------           "};
