/* XPM */
static char * strike_left_2_xpm[] = {
"64 64 14 1",
" 	c #509B66",
".	c #000000",
"+	c #573A23",
"@	c #402717",
"#	c #AC7B5D",
"$	c #C1AC8F",
"%	c #21110D",
"&	c #FFFFFF",
"*	c #787E97",
"=	c #A4A8B5",
"-	c #1D438A",
";	c #2C65B5",
">	c #3A714B",
",	c #0D205E",
"                                                                ",
"                                                                ",
"                                                                ",
"                                                                ",
"                                                                ",
"                                                                ",
"                                                                ",
"                                                                ",
"                                                                ",
"                                      ...  ........             ",
"                                      ...  ........             ",
"                                  ......+..@@++++..             ",
"                                  ......+..@@++++..             ",
"                                ..++++@@+@@++++....             ",
"                                ..++++@@+@@++++....             ",
"                              ..+++++++++++++++++@@..           ",
"                              ..+++++++++++++++++@@..           ",
"                            ..+++++++++++++++++++++@@..         ",
"                            ..+++++++++++++++++++++@@..         ",
"                            ..++++++@@@@+++++@@++++@@..         ",
"                            ..++++++@@@@+++++@@++++@@..         ",
"                          ..@@++@@####@@+++++@@@@@@@@..         ",
"                          ..@@++@@####@@+++++@@@@@@@@..         ",
"                          ..@@@@########@++++@@@@++@@..         ",
"                          ..@@$$%%$$$$%%#++@@##++++@@..         ",
"                          ..@@$$%%$$$$%%#++@@##++++@@..         ",
"                            ....%%$$$$%%$@@####++@@@@..         ",
"                            ....%%$$$$%%$@@####++@@@@..         ",
"           &&&&&&&&&&       ....$$$$$$$$#######@@@@..           ",
"           &&&&&&&&&&       ....$$$$$$$$#######@@@@..           ",
"        &&&&&&&&&             ..#############..@@..             ",
"        &&&&&&&&&             ..#############..@@..             ",
"    &&&&&&&&&&&               ....@@****@++++....       ........",
"    &&&&&&&&&&&               ....@@****@++++....       ........",
"  &&&&&&&&&&&               ..##@@====**+++$$$$..    ...======..",
"  &&&&&&&&&&&               ..##@@====**+++$$$$..    ...======..",
"&&&&&&&&&&&&&               ..##@@====@@+@@$$$$$$....=========..",
"&&&&&&&&&&&&&               ..##@@====@@+@@$$$$$$....=========..",
"&&&&&&&&&&&&&               ....@@====+++..$$$$$$..=========..  ",
"&&&&&&&&&&&&&               ....@@====+++..$$$$$$..=========..  ",
"&&&&&&&&&&&&&&&             ..--;;;;;;;;+@@......=========..    ",
"  &&&&&&&&&&&&&&&       >>..++++--,,;;;;+....===========..      ",
"  &&&&&&&&&&&&&&&       >>..++++--,,;;;;+....===========..      ",
"  &&&&&&&&&&&&&&&&&&&  >>>..++++@@.......============...        ",
"  &&&&&&&&&&&&&&&&&&&  >>>..++++@@.......============...        ",
"    &&&&&&&&&&&&&&&&&&&&&&&&>>>>..===========&&&&....           ",
"    &&&&&&&&&&&&&&&&&&&&&&&&>>>>..===========&&&&....           ",
"      &&&&&&&&&&&&&&&&&&&&&&&&&&&&&&&&&&&&&&&&&                 ",
"      &&&&&&&&&&&&&&&&&&&&&&&&&&&&&&&&&&&&&&&&&                 ",
"         &&&&&&&&&&&&&&&&&&&&&&&&&&&&&&&&&&                     ",
"         &&&&&&&&&&&&&&&&&&&&&&&&&&&&&&&&&&                     ",
"                 &&&&&&&&&&&&&&&&&&&&&                          ",
"                 &&&&&&&&&&&&&&&&&&&&&                          ",
"                                                                ",
"                                                                ",
"                                                                ",
"                                                                ",
"                                                                ",
"                                                                ",
"                                                                ",
"                                                                ",
"                                                                ",
"                                                                ",
"                                                                "};
