/* XPM */
static char * door_xpm[] = {
"64 64 97 2",
"  	c #CCDBE0",
". 	c #8E9091",
"+ 	c #DCDEDA",
"@ 	c #FAFCFB",
"# 	c #E3E7E6",
"$ 	c #B6BAB8",
"% 	c #2C3139",
"& 	c #D1D3CE",
"* 	c #D6D8D3",
"= 	c #EFF1F1",
"- 	c #989B9C",
"; 	c #CBDADF",
"> 	c #CDDADE",
", 	c #CFDCE0",
"' 	c #44464B",
") 	c #84888A",
"! 	c #D0DDE0",
"~ 	c #CFDDE0",
"{ 	c #D4E3E6",
"] 	c #D3E2E7",
"^ 	c #BBDFE7",
"/ 	c #A2C6CF",
"( 	c #D6E4E7",
"_ 	c #6A6D71",
": 	c #9EC4CD",
"< 	c #A0C4CD",
"[ 	c #A0A3A4",
"} 	c #535E6A",
"| 	c #585B5F",
"1 	c #CACDCB",
"2 	c #616568",
"3 	c #A9ACAB",
"4 	c #BFC3C1",
"5 	c #717679",
"6 	c #B9BFBF",
"7 	c #232932",
"8 	c #C5C8C6",
"9 	c #B1B3B1",
"0 	c #BBDEE6",
"a 	c #BBDFE6",
"b 	c #7A7F81",
"c 	c #828E96",
"d 	c #A1ABAE",
"e 	c #6D7983",
"f 	c #67737E",
"g 	c #6A6D70",
"h 	c #434C59",
"i 	c #3A414E",
"j 	c #353C49",
"k 	c #303643",
"l 	c #8E9394",
"m 	c #3A3C40",
"n 	c #1B202A",
"o 	c #4D5764",
"p 	c #28303A",
"q 	c #586470",
"r 	c #0B0D16",
"s 	c #131722",
"t 	c #5E6975",
"u 	c #3E4654",
"v 	c #636F7A",
"w 	c #444C56",
"x 	c #B1BABD",
"y 	c #CCD4DA",
"z 	c #48515F",
"A 	c #4E5155",
"B 	c #AEB6B7",
"C 	c #A8B1B4",
"D 	c #D2E2E5",
"E 	c #A3C6CF",
"F 	c #D3E2E5",
"G 	c #A4C7CF",
"H 	c #8E99A0",
"I 	c #87939B",
"J 	c #9AA5AA",
"K 	c #949FA5",
"L 	c #717E88",
"M 	c #D9E6E8",
"N 	c #B8DEE7",
"O 	c #B9DFE7",
"P 	c #B7DFE8",
"Q 	c #77838C",
"R 	c #BEC7CD",
"S 	c #7C8891",
"T 	c #CBDBE0",
"U 	c #B9DEE6",
"V 	c #BADFE7",
"W 	c #9CC2CC",
"X 	c #BADEE6",
"Y 	c #BDE1E8",
"Z 	c #9DC3CD",
"` 	c #BCE0E8",
" .	c #B8DEE6",
"..	c #B7DFE7",
"+.	c #BAE1E9",
"@.	c #141A27",
"#.	c #090D1A",
"                                                      . + @ @ @ @ @ @ # $                                                       ",
"                                                # @ % & * + + + = + + * * - @ =                                                 ",
"; ; ; > > > > , , , , ; ; ; ; ; ; ; ; ; , , @ + * + - * * + + + + + + + + ' & * ) @ , , ,                 ! , , , ~ > > > > ; ; ",
"{ { ] ^ ^ ^ ^ / / / / { { { { { { { { ( = * + * + + = # + * + + + + * + * ' + * # * * - _ ;               : / / / < ^ ^ ^ ^ { { ",
"{ { ] ^ ^ ^ ^ / / / / { { { { { { { { ) & * * * * * * [ * * * * * * * * * & & * & # & * # ;               : / / / < ^ ^ ^ ^ { { ",
"{ { ] ^ ^ ^ ^ / / / / { { { { { { . @ } & * & & * & & | & 1 & & * * & & ) # & & & & * & 2 # $             : / / / < ^ ^ ^ ^ { { ",
"{ { ] ^ ^ ^ ^ / / / / { { { { { 3 1 1 * ) 4 1 & & & 1 5 6 [ 1 1 & & & 1 7 8 9 & & 1 & 5 = & & 1           : / / / < 0 0 0 a { { ",
"{ { { { { { { { { { { { { { { { 4 8 3 1 & b 8 1 1 1 1 c [ d e f 5 c ) ) 5 4 8 + 8 8 b & & & & 1 { { { { { ;                 { { ",
"{ { { { { { { { { { { { { { 6 6 5 4 8 8 1 & g 8 8 # h i i j k j j i j j h h # * 4 4 @ 1 1 1 1 & 1 b { { { ;                 { { ",
"{ { { { { { { { { { { { { { 1 8 8 l $ 8 4 8 # } i j m j n k k k m k k k j j j i o b 1 8 1 1 1 8 8 4 p { { ;                 { { ",
"{ { { { { { { { { { { { { l 4 8 4 4 4 @ $ 8 q n k k k j r r s 7 n n r r k k k k s e 4 4 8 8 8 4 4 4 ) { { ;                 { { ",
"{ { { { { { { { { { { { { o t 4 6 4 6 4 $ u u j j k s i % i i i i i i n k 7 k k j i } 4 8 8 * 6 6 v ' w { ;                 { { ",
"{ { { { { { { { { { { { 2 8 * @ g 1 $ 4 u i i m r k j j o q h j j u o % i i i r k j i t 4 4 6 e @ + $ k { ;                 { { ",
"{ { { { { { { { { { { d x 6 4 8 8 j y v j j j j % h o s o h ' i i u k z s } u z k j j i o # A 8 4 4 1 $ l ;                 { { ",
"{ { { { { { { { { { { d B 6 6 4 B 4 # k j j i i h r u i o 7 r r r r n o u u r h u j j j j 1 4 4 6 y $ x C ;                 { { ",
"{ { D E E E E F { { { d x x 4 $ x 6 z u j j i u r z o r 7 s m k i m % n r } s s h u i k h t $ 6 x $ $ B C ;       , E E E G { { ",
"{ { D / / / / F { { t t C C x c 1 H h i s j h s i 7 r % j n h s s ' ' ' 7 7 r u k z u s u u B B 6 B B C d t       , / / / E { { ",
"{ { D / / / / F { { I J C C B B B y u j i k s h % m n m ' n A g 7 A ' ' ' m k r u n o u j u 1 C B C d d J t       , / / / E { { ",
"{ { D / / / / F { { H K J d C C C L i r h o h z m A 7 A A 7 g b b b | | A A s ' i z o h s u 5 d d d d J K e       , / / / E { { ",
"{ { { M M M M N N N I H J J J d d h i u } z z s A s m 2 [ ' 3 9 9 3 [ [ g 2 n | s o 7 } u i h d d J J K H f O O O P ! ! ! ! { { ",
"{ { { { { { { ^ ^ ^ u z q t t } q j j h v s z s z 2 A [ $ ' 9 @ 1 9 3 3 [ b n n h } o q h u i } v Q e v q j ^ ^ ^ O         { { ",
"{ { { { { { { ^ ^ K x g B 6 & 4 4 4 = } L } q n b 5 g - $ | = 1 1 & | 9 9 3 7 m 2 L } v o @ 8 8 6 4 4 + A C C ^ ^ O         { { ",
"{ { { { { { { ^ ^ d d c $ 8 6 + 4 6 + z v t e % ' - 5 $ $ $ 4 = 4 4 + 9 $ 3 % ' 5 H f f h 8 $ 8 6 6 2 $ 1 d d ^ ^ O         { { ",
"{ { { { { { { N N R d L x $ 5 R C 6 # h e t S % m m 2 $ $ A 4 ' A 4 A $ $ 9 ' % ) C Q v u @ B 5 x | 6 x 6 d x O O P         { { ",
"{ { { { { { { { { 6 K [ B B B 6 x B = u Q S I k $ 3 2 $ 9 | A 6 6 l $ $ $ 9 A 5 l C I 5 h = 6 6 B B B d J j y               { { ",
"{ { { { { { { { { K I H J J d d C C 6 i S S H m l l g B [ | $ A $ 1 - $ $ 9 ) ) l C I Q h y B C J C d d K H S               { { ",
"{ { { { { { { { { z c H K d J B d q K u S f H m [ # g $ $ 2 9 9 b $ 3 9 9 3 % m [ 4 c c u c z B H J d J K H o               { { ",
"{ { { { { { { { { { % n n n n n n 7 j r Q j B ' & ) 5 9 $ | = 8 1 & A 9 9 3 m b [ x L y n j n s n n n n n 7         ; ; ; ; { { ",
"{ { { { { { { { { { { h o | o o o o j u I K d h 9 [ 5 9 & 8 9 | ' * 8 = 3 3 m l [ 6 J c z j t o } } } o | ;       , / / / E { { ",
"{ { { { { { { { { { { I S d J d d K i t H K d m l l | ) 4 % # * 5 @ 5 8 @ 9 m l [ x J H f i 6 C C C d d C ;       , / / / E { { ",
"{ { { { { { { { { { { # $ $ 4 $ 1 B q f K K J [ 9 9 * 6 % A ) @ = ' # A 4 [ 9 9 9 C J I S t + = 4 6 $ 9 @ ;       , / / / E { { ",
"{ { { { { { { { { { { C B 6 8 6 $ + h h q K J A 2 g 7 | 9 ' 1 g ' 6 % 4 m m ' g g C C b o h @ 6 6 6 + B C ;       , / / / E { { ",
"{ { { { { { { { { { { d C B 6 @ + b u L H J d 1 [ 3 7 + s 9 m [ A # 9 7 m 6 9 3 6 x d d c h # 6 5 8 x C d ;         T T T   { { ",
"{ { { { { { { { { { { B C C l 6 6 R u Q S J K b & 3 m - 9 3 g % | [ [ A 2 $ 3 = - ) K I Q h y B 8 4 C C d ;                 { { ",
"{ { { { { { { { { { { J J d 3 C B # u f [ J J 2 l 3 s @ [ % 3 - l + ' [ + & 1 - | d J l v h 1 C B $ C d d ;                 { { ",
"{ { { { { { { { { { { e 5 d 3 C d t h e H J J H J d x 3 5 ) m - [ ) = [ - % d [ - 4 K I Q h 6 5 C C g ) h ;                 { { ",
"{ { { { { { { ^ ^ ^ ^ J B b C C x d z e H Q H | - l s | [ l A 6 | 8 - - J i c ) ) B K I S z # $ B $ 7 x B U 0 0 0 V         { { ",
"{ { { { { { { ^ ^ ^ ^ I J [ C C C x z e H c H % % 7 % 2 - [ m ' | s l l A ) % m m 4 K H I o K C B - B d d N ^ ^ ^ O         { { ",
"{ { { { { { { ^ ^ ^ ^ K K ) J d d d z L I c H m 5 y A ) g n ) l l - m A - l % n d 6 H I S o x 2 C C C d d N ^ ^ ^ O         { { ",
"{ { { { { { { ^ ^ ^ ^ H K H C J J J z I I Q I m l b A l l 2 [ i A A l - - C % % [ 6 H c S o f J K C J d l N ^ ^ ^ O         { { ",
"{ { D W W W W X ^ ^ ^ c I c H t K C h 7 7 j n m g H A l l | c m 3 - [ l * - n m - % % j k h H H K J K I c N ^ ^ ^ Y Z Z Z : { { ",
"{ { D / / / / X ^ ^ ^ S c c e o o 7 7 v c c c k = = ' e l ' % J J b [ * - l R + - B H c Q h c K H H I c } N ^ ^ ^ ` / / / E { { ",
"{ { D / / / / X ^ ^ ^ Q Q K c I I c h v S S Q % 5 d ' c l ' H } n K ' - H b m [ - C c S L u e c I I S R S N ^ ^ ^ ` / / / E { { ",
"{ { D / / / / X ^ ^ ^ e Q Q Q Q S Q u t L L c % % k ' g ) z J L H Q x l l b m m l t S S e u e S t S y S Q N ^ ^ ^ ` / / / E { { ",
"{ { D / / / /  .N N N z } } } u o } s f e S S % | d ' c Q h R } q y c c c b % d l K Q Q f n q z z % o } z ..O O O +./ / / E { { ",
"{ { D / / / / F { { { i c c c v c d u t f f S 7 o g u c 5 k c S 6 c m Q Q b m R c J Q L f h d I K I I c c ;       , / / / E { { ",
"{ { D / / / / F { { { K } S S I S d o q f t Q 7 k m i e ) m e S S m 5 e e 5 m k Q K e f v z H 6 S t S Q L ;       , / / / E { { ",
"{ { D / / / / F { { { f Q Q h u S L h } v q L 7 S f j v 5 i 5 g i e f f f q % c e I v f } i I S z R Q e e ;       , / / / E { { ",
"{ { D E E E E F { { { f L J } I t + u o c o f 7 % % i 2 v k e f 2 f q t q z % % t Q q } o i H Q L L f f f ;       , E E E G { { ",
"{ { { { { { { { { { { q j z L Q Q c u o q } t n i C k } } % g C R g } q } h 7 % q L } t o i Q L L h k f v                   { { ",
"{ { { { { { { { { { { t f 7 L e L Q i z } o q 7 t v % h o 7 q } L t s u z u 7 7 } L } q o i Q e e f u f h                   { { ",
"{ { { { { { { { { { { t k e f f f e i h o } z 7 f f 7 u h k q S 7 q k i u i 7 o o R o o z i e f e f e q v                   { { ",
"{ { { { { { { { { { { q % v t v v S i u o o } q u B C B y n x C C 6 S x x C K s L f o o h i h v v t t t q                   { { ",
"{ { D / / / / F { { { } v q q t t S j u z h o o e q t t q s q q t q t q q q q j o v z } u j v } q q q k }         , / / / E { { ",
"{ { D / / / / F { { w n n 7 7 7 n 7 e e z h h } t L s H I K H H H H K K H j H c v q z z } S 7 % 7 % 7 7 r j       , / / / E { { ",
"{ { D / / / / F { y C + y R # S + + y z h i u u h h n o o } o o } } o o o % h u j } u u u = + y I # y x + R +     , / / / E { { ",
"{ { D / / / / F { t t e Q Q S y L S d h h u u u z z } q q t t t t q } n q } o z u o u i u c S L R Q S Q L f q     , / / / E { { ",
"{ { F F F F F { { q v f f L L Q Q o Q u i j u j u z h } } q } } } q q 7 o o h z u i i i i I u L L L e f f t } F F F F F F F { { ",
"{ { { { { { { { { } q t v L v L L L I 7 Q Q S c t C K J C H H H K H H v R 6 o H H c c Q % e e e e e f v v q } { { { { { { { { { ",
"{ { { { { { { { { o } q t t f e f f f u v t f f t f v e K e f } L L e } v f 6 f f v t t z e f f f v v t u } } { { { { { { { { { ",
"{ { { { { { { { { z } } q t t t q v t h z t t v v H v L } v e L e f f o v v Q v v t q t u t t t v t q } h o i { { { { { { { { { ",
"{ { { { { { { { { h % o o } q t q q } h } f t t L t t t } v v f v f t u t t q q q t q q i q q q q } t o z 7 h { { { { { { { { { ",
"{ { { { { { { { { u h z } } } q } } t u } } n z q q q t u t v v f t q j t q z q q q q z k } } } } o o z o z h { { { { { { { { { ",
"{ { { { { { { { { % k k k k k k k k % @.p p { { #.#.#.#.{ #.#.#.#.#.#.{ @.@.{ { @.@.@.@.@.k k k s k k k k k % { { { { { { { { { "};
