/* XPM */
static char * kratos_xpm[] = {
"64 64 46 1",
" 	c #CCDBE0",
".	c #CBDADF",
"+	c #CDDADE",
"@	c #CFDCE0",
"#	c #D0DDE0",
"$	c #CFDDE0",
"%	c #D4E3E6",
"&	c #D3E2E7",
"*	c #BBDFE7",
"=	c #A2C6CF",
"-	c #D6E4E7",
";	c #9EC4CD",
">	c #A0C4CD",
",	c #1F0E1C",
"'	c #CBDBE0",
")	c #BBDEE6",
"!	c #BBDFE6",
"~	c #C09473",
"{	c #E7D5B3",
"]	c #A53030",
"^	c #D3E2E5",
"/	c #D2E2E5",
"(	c #A3C6CF",
"_	c #A4C7CF",
":	c #0CF1FF",
"<	c #D9E6E8",
"[	c #B7DFE8",
"}	c #B9DFE7",
"|	c #8C8FAE",
"1	c #FCFFFF",
"2	c #584563",
"3	c #B9DEE6",
"4	c #BADFE7",
"5	c #B8DEE7",
"6	c #9CC2CC",
"7	c #BADEE6",
"8	c #9A6348",
"9	c #BDE1E8",
"0	c #9DC3CD",
"a	c #BCE0E8",
"b	c #752438",
"c	c #D79B7D",
"d	c #B8DEE6",
"e	c #BAE1E9",
"f	c #3E2137",
"g	c #D6E3E6",
"                                                                ",
"                                                                ",
"...++++@@@@.........@@@@                 @@@@        #@@@$++++..",
"%%&****====%%%%%%%%-====                .====.       ;===>****%%",
"%%&****====%%%%%%%%-====        ,,,,,,,,,,,==.       ;===>****%%",
"%%&****====%%%%%%%%-====        ,,,,,,,,,,,==.       ;===>****%%",
"%%&****====%%%%%%%%-====''''    ,,,,,,,,,,,==        ;===>)))!%%",
"%%%%%%%%%%%%%%%%%%%%%%%&**,,,,,,~~~{{{{{~~~,,,,,%%%%%.        %%",
"%%%%%%%%%%%%%%%%%%%%%%%&**,,,,,,~~~{{{{{~~~,,,,,%%%%%.        %%",
"%%%%%%%%%%%%%%%%%%%%%%%&**,,,,,,~~~{{{{{~~~,,,,,%%%%%.        %%",
"%%%%%%%%%%%%%%%%%%%%%%%&,,~~~{{{{{{{{{{{{{{]]]]],,,%%.        %%",
"%%%%%%%%%%%%%%%%%%%%%%%^,,~~~{{{{{{{{{{{{{{]]]]],,,%%.        %%",
"%%%%%%%%%%%%%%%%%%%%%%%^,,~~~{{{{{{{{{{{{{{]]]]],,,%%.        %%",
"%%%%%%%%%%%%%%%%%%%%%,,,~~{{{{{{{{{{{{{{{{{]]]]]~~~,,.        %%",
"%%%%%%%%%%%%%%%%%%%%%,,,~~{{{{{{{{{{{{{{{{{]]]]]~~~,,.        %%",
"%%/((((^%%%%%%%%%%%%%,,,~~{{{{{{{{{{{{{{{{{]]]]]~~~,,.   @(((_%%",
"%%/====^%%%%%,,,,,,,,,,,{{{{{{{{{{{{{{{{{{{]]]]]{{{,,.   @===(%%",
"%%/====^%%%%%,,,,,,,,,,,{{{{{{{{{{{{{{{{{{{]]]]]{{{,,.   @===(%%",
"%%/==,,,,,,,,::::::::,,,{{{{{~~~~~~~~~~~]]]]]]{{{{{,,.   @===(%%",
"%%%<<,,,,,,,,::::::::,,,{{{{{~~~~~~~~~~~]]]]]]{{{{{,,[}}}[####%%",
"%%,,,::::::::|||:::::,,,{{{{{{{{{{{~~~]]]]]]]]{{{{{,,}***}    %%",
"%%,,,::::::::|||:::::,,,{{{{{{{{{{{~~~]]]]]]]]{{{{{,,}***}    %%",
"%%,,,::::::::|||:::::,,,{{{{{{{{{{{~~~]]]]]]]]{{{{{,,}***}    %%",
"%%,,,:::|||::|||||:::,,,~~{{{{{{{{{~~~]]]]]]]]{{111,,[}}}[    %%",
"%%,,,:::|||::|||||:::,,,~~{{{{{{{{{~~~]]]]]]]]{{111,,         %%",
"%%,,,:::|||::|||||:::,,,~~{{{{{{{{{~~~]]]]]]]]{{111,,         %%",
"%%,,,:::|||:::::::,,,{{{||,,,,,,,,,{{{{{,,,,,,,,|||{{,,,      %%",
"%%,,,:::|||:::::::,,,{{{||,,,,,,,,,{{{{{,,,,,,,,|||{{,,,  ....%%",
"%%,,,:::|||:::::::,,,{{{||,,,,,,,,,{{{{{,,,,,,,,|||{{,,, @===(%%",
"%%%%%,,,:::||:::,,,,,~~~||~~~,,,~~~{{{{{]]],,,]]|||~~,,, @===(%%",
"%%%%%,,,:::||:::,,,,,~~~||~~~,,,~~~{{{{{]]],,,]]|||~~,,, @===(%%",
"%%%%%,,,:::::,,,%%,,,,,,22|||~~~{{{{{{{{{{{]]]||222,,.   @===(%%",
"%%%%%,,,:::::,,,%%,,,,,,22|||~~~{{{{{{{{{{{]]]||222,,.    ''' %%",
"%%%%%,,,:::::,,,%%,,,,,,22|||~~~{{{{{{{{{{{]]]||222,,.        %%",
"%%%%%%%%,,,,,,,,%%,,,,,,22|||||||||22222||||||||222,,.        %%",
"%%%%%%%%,,,,,,,,%%,,,,,,22|||||||||22222||||||||222,,.        %%",
"%%%%%%%*,,,,,,,,%%,,,,,,22|||||||||22222||||||||222,,3)))4    %%",
"%%%%%%%****%%%%%,,222,,,22|||222~~~~~~~~~~~222||222,,5***}    %%",
"%%%%%%%****%%%%%,,222,,,22|||222~~~~~~~~~~~222||222,,5***}    %%",
"%%%%%%%****%%%%%,,222,,,22|||222~~~~~~~~~~~222||222,,5***}    %%",
"%%/66667***%%,,,88888888,,222|||||||||||||||||22,,,]],,,*9000;%%",
"%%/====7***%%,,,88888888,,222|||||||||||||||||22,,,]],,,*a===(%%",
"%%/====7***%%,,,88888888,,222|||||||||||||||||22,,,]],,,*a===(%%",
"%%/====7***%%,,,2288888888,,,222222|||||222222bb]]]cc,,,*a===(%%",
"%%/====d555%%,,,2288888888,,,222222|||||222222bb]]]cc,,,}e===(%%",
"%%/====^%%%%%%%%,,2228888888888888888888222{{{]]]]]{{{{{,,,==(%%",
"%%/====^%%%%%%%%,,2228888888888888888888222{{{]]]]]{{{{{,,,==(%%",
"%%/====^%%%%%%%%,,2228888888888888888888222{{{]]]]]{{{{{,,,==(%%",
"%%/((((^%%%%%%%%,,ccc{{{,,{{{{{{2222228888888822,,,{{{{{,,,((_%%",
"%%%%%%%%%%%%%%%%,,ccc{{{,,{{{{{{2222228888888822,,,{{{{{,,,   %%",
"%%%%%%%%%%%%%,,,88888222,,888888||||||{{{{{]]]]],,,22888888,,,%%",
"%%%%%%%%%%%%%,,,88888222,,888888||||||{{{{{]]]]],,,22888888,,,%%",
"%%%%%%%%%%%%%,,,88888222,,888888||||||{{{{{]]]]],,,22888888,,,%%",
"%%/====^%%%%%,,,88888{{{cc888|||ffffff||88888888{{{cc888888,,,%%",
"%%/====^%%%%%,,,88888{{{cc888|||ffffff||88888888{{{cc888888,,,%%",
"%%/====^%%%%%,,,88888{{{cc888|||ffffff||88888888{{{cc888888,,,%%",
"%%/====^%%%%%,,,22888{{{{{,,,,,,||||||,,,,,,,,,,{{{{{888222,,,%%",
"%%^^^^^%%%%%%,,,22888{{{{{,,,,,,||||||,,,,,,,,,,{{{{{888222,,,%%",
"%%%%%%%%%%%%%%%%,,,,,,,,,,,,,,,,,,,%%%%%,,,,,,,,,,,,,,,,,,,%%%%%",
"%%%%%%%%%%%%%%%%,,,,,,,,,,,,,,,,,,,%%%%%,,,,,,,,,,,,,,,,,,,%%%%%",
"%%%%%%%%%%%%%%%%,,,,,,,,,,,,,,,,,,,%%%%%,,,,,,,,,,,,,,,,,,,%%%%%",
"%%%%%%%%%%%%%%%%%%%&gggg%%%%%,,,,,,%%%%%,,,,,,%%%%%%%%%%%%%%%%%%",
"%%%%%%%%%%%%%%%%%%%%%%%%%%%%%,,,,,,%%%%%,,,,,,%%%%%%%%%%%%%%%%%%",
"%%%%%%%%%%%%%%%%%%%%%%%%%%%%%,,,,,,%%%%%,,,,,,%%%%%%%%%%%%%%%%%%"};
