/* XPM */
static char * snow_xpm[] = {
"64 64 40 1",
" 	c #CCDBE0",
".	c #CBDADF",
"+	c #CDDADE",
"@	c #CFDCE0",
"#	c #D0DDE0",
"$	c #CFDDE0",
"%	c #D4E3E6",
"&	c #D3E2E7",
"*	c #BBDFE7",
"=	c #A2C6CF",
"-	c #D6E4E7",
";	c #9EC4CD",
">	c #A0C4CD",
",	c #CBDBE0",
"'	c #CCDBDE",
")	c #BBDEE6",
"!	c #BBDFE6",
"~	c #D3E2E5",
"{	c #BADEE6",
"]	c #CADADF",
"^	c #D2E2E5",
"/	c #A3C6CF",
"(	c #A4C7CF",
"_	c #D9E6E8",
":	c #B8DEE7",
"<	c #B7DFE8",
"[	c #B9DFE7",
"}	c #B9DEE6",
"|	c #BADFE7",
"1	c #9CC2CC",
"2	c #BDE1E8",
"3	c #9DC3CD",
"4	c #BCE0E8",
"5	c #B8DEE6",
"6	c #B7DFE7",
"7	c #BAE1E9",
"8	c #D9E5E8",
"9	c #D6E3E6",
"0	c #D5E3E6",
"a	c #D3E3E6",
"                                                                ",
"                                                                ",
"...++++@@@@.........@@@@                 @@@@        #@@@$++++..",
"%%&****====%%%%%%%%-====                .====.       ;===>****%%",
"%%&****====%%%%%%%%-====                .====.       ;===>****%%",
"%%&****====%%%%%%%%-====                .====.       ;===>****%%",
"%%&****====%%%%%%%%-====,,,,        ',,,.====        ;===>)))!%%",
"%%%%%%%%%%%%%%%%%%%%%%%&****,       +***)    ~%%%%%%%.        %%",
"%%%%%%%%%%%%%%%%%%%%%%%&****,       +***)    ~%%%%%%%.        %%",
"%%%%%%%%%%%%%%%%%%%%%%%&****,       +***)    ~%%%%%%%.        %%",
"%%%%%%%%%%%%%%%%%%%%%%%&{{{{,       +{{{)    ~%%%%%%%.        %%",
"%%%%%%%%%%%%%%%%%%%%%%%~====]       #====    ~%%%%%%%.        %%",
"%%%%%%%%%%%%%%%%%%%%%%%~====]       #====    ~%%%%%%%.        %%",
"%%%%%%%%%%%%%%%%%%%%%%%~====]       #====    ~%%%%%%%.        %%",
"%%%%%%%%%%%%%%%%%%%%%%%~====]       #====    ~%%%%%%%.        %%",
"%%^////~%%%%%%%%%%%%%%%~^^^^~~~~~~~~~^^^^~~~~%%%%%%%%.   @///(%%",
"%%^====~%%%%%%%%%%%%%%%%%%%%%%%%%%%%%%%%%%%%%%%%%%%%%.   @===/%%",
"%%^====~%%%%%%%%%%%%%%%%%%%%%%%%%%%%%%%%%%%%%%%%%%%%%.   @===/%%",
"%%^====~%%%%%%%%%%%%%%%%%%%%%%%%%%%%%%%%%%%%%%%%%%%%%.   @===/%%",
"%%%____::::%%%%%%%%%%%%%%%%%%%%%%%%%%%%%%%%%%%%%%....<[[[<####%%",
"%%%%%%%****%%%%%%%%%%%%%%%%%%%%%%%%%%%%%%%%%%%%%%    [***[    %%",
"%%%%%%%****%%%%%%%%%%%%%%%%%%%%%%%%%%%%%%%%%%%%%%    [***[    %%",
"%%%%%%%****%%%%%%%%%%%%%%%%%%%%%%%%%%%%%%%%%%%%%%    [***[    %%",
"%%%%%%%::::%%%%%%%%%%%%%%%%%%%%%%%%%%%%%%%%%%%%%%    <[[[<    %%",
"%%%%%%%%%%%%%%%%%%%%%%%%%%%%%%%%%%%%%%%%%%%%%%%%%             %%",
"%%%%%%%%%%%%%%%%%%%%%%%%%%%%%%%%%%%%%%%%%%%%%%%%%             %%",
"%%%%%%%%%%%%%%%%%%%%%%%%%%%%%%%%%%%%%%%%%%%%%%%%%             %%",
"%%%%%%%%%%%%%%%%%%%%%%%%%%%%%%%%%%%%%%%%%%%%%%%%%    .    ....%%",
"%%%%%%%%%%%%%%%%%%%%%%%%%%%%%%%%%%%%%%%%%%%%%%%%%%%%%.   @===/%%",
"%%%%%%%%%%%%%%%%%%%%%%%%%%%%%%%%%%%%%%%%%%%%%%%%%%%%%.   @===/%%",
"%%%%%%%%%%%%%%%%%%%%%%%%%%%%%%%%%%%%%%%%%%%%%%%%%%%%%.   @===/%%",
"%%%%%%%%%%%%%%%%%%%%%%%%%%%%%%%%%%%%%%%%%%%%%%%%%%%%%.   @===/%%",
"%%%%%%%%%%%%%%%%%%%%%%%%%%%%%%%%%%%%%%%%%%%%%%%%%%%%%.    ,,, %%",
"%%%%%%%%%%%%%%%%%%%%%%%%%%%%%%%%%%%%%%%%%%%%%%%%%%%%%.        %%",
"%%%%%%%%%%%%%%%%%%%%%%%%%%%%%%%%%%%%%%%%%%%%%%%%%%%%%.        %%",
"%%%%%%%%%%%%%%%%%%%%%%%%%%%%%%%%%%%%%%%%%%%%%%%%%%%%%.        %%",
"%%%%%%%****%%%%%%%%%%%%%%%%%%%%%%%%%%%%%%%%%%%%%%%%%%})))|    %%",
"%%%%%%%****%%%%%%%%%%%%%%%%%%%%%%%%%%%%%%%%%%%%%%%%%%:***[    %%",
"%%%%%%%****%%%%%%%%%%%%%%%%%%%%%%%%%%%%%%%%%%%%%%%%%%:***[    %%",
"%%%%%%%****%%%%%%%%%%%%%%%%%%%%%%%%%%%%%%%%%%%%%%%%%%:***[    %%",
"%%^1111{***%%%%%%%%%%%%%%%%%%%%%%%%%%%%%%%%%%%%%%%%%%:***2333;%%",
"%%^===={***%%%%%%%%%%%%%%%%%%%%%%%%%%%%%%%%%%%%%%%%%%:***4===/%%",
"%%^===={***%%%%%%%%%%%%%%%%%%%%%%%%%%%%%%%%%%%%%%%%%%:***4===/%%",
"%%^===={***%%%%%%%%%%%%%%%%%%%%%%%%%%%%%%%%%%%%%%%%%%:***4===/%%",
"%%^====5:::%%%%%%%%%%%%%%%%%%%%%%%%%%%%%%%%%%%%%%%%%%6[[[7===/%%",
"%%^====~%%%%%%%%%%%%%%%%%%%%%%%%%%%%%%%%%%%%%%%%%%%%%.   @===/%%",
"%%^====~%%%%%%%%%%%%%%%%%%%%%%%%%%%%%%%%%%%%%%%%%%%%%.   @===/%%",
"%%^====~%%%%%%%%%%%%%%%%%%%%%%%%%%%%%%%%%%%%%%%%%%%%%.   @===/%%",
"%%^////~%%%%%%%%%%%%%%%~^^^^~%%%%%%%%^^^^%%%%~~~~~~~~.   @///(%%",
"%%%%%%%%%%%%%%%%%%%%%%%~====^%%%%%%%8===/%%%%                 %%",
"%%%%%%%%%%%%%%%%%%%%%%%~====^%%%%%%%8===/%%%%                 %%",
"%%%%%%%%%%%%%%%%%%%%%%%~====^%%%%%%%8===/%%%%                 %%",
"%%%%%%%%%%%%%%%%%%%%%%%~====^%%%%%%%8===/%%%%                 %%",
"%%^====~%%%%%%%%%%%-===={{{{&%%%%%%%9{{{{====.           @===/%%",
"%%^====~%%%%%%%%%%%-====****&%%%%%%%9***{====.           @===/%%",
"%%^====~%%%%%%%%%%%-====****&%%%%%%%9***{====.           @===/%%",
"%%^====~%%%%%%%%%%%-====****&%%%%%%%9***{====.           @===/%%",
"%%~~~~~%%%%%%%%%%%%0{{{)&&&&a%%%%%%%%&&&&{{{{~~~~~~~~~~~~~~~~~%%",
"%%%%%%%%%%%%%%%%%%%0****%%%%%%%%%%%%%%%%&****&%%%%%%%%%%%%%%%%%%",
"%%%%%%%%%%%%%%%%%%%0****%%%%%%%%%%%%%%%%&****&%%%%%%%%%%%%%%%%%%",
"%%%%%%%%%%%%%%%%%%%0****%%%%%%%%%%%%%%%%&****&%%%%%%%%%%%%%%%%%%",
"%%%%%%%%%%%%%%%%%%%&9999%%%%%%%%%%%%%%%%%9999%%%%%%%%%%%%%%%%%%%",
"%%%%%%%%%%%%%%%%%%%%%%%%%%%%%%%%%%%%%%%%%%%%%%%%%%%%%%%%%%%%%%%%",
"%%%%%%%%%%%%%%%%%%%%%%%%%%%%%%%%%%%%%%%%%%%%%%%%%%%%%%%%%%%%%%%%"};
