/* XPM */
static char * werewolf_xpm[] = {
"64 64 38 1",
" 	c #CCDBE0",
".	c #CBDADF",
"+	c #CDDADE",
"@	c #CFDCE0",
"#	c #D0DDE0",
"$	c #CFDDE0",
"%	c #D4E3E6",
"&	c #D3E2E7",
"*	c #BBDFE7",
"=	c #A2C6CF",
"-	c #D6E4E7",
";	c #9EC4CD",
">	c #A0C4CD",
",	c #CBDBE0",
"'	c #1C0B21",
")	c #CCDBDE",
"!	c #BBDEE6",
"~	c #BBDFE6",
"{	c #D3E2E5",
"]	c #BADEE6",
"^	c #75A3A8",
"/	c #30626D",
"(	c #D2E2E5",
"_	c #A3C6CF",
":	c #A4C7CF",
"<	c #D9E6E8",
"[	c #B8DEE7",
"}	c #B7DFE8",
"|	c #B9DFE7",
"1	c #1D1D1C",
"2	c #D8180B",
"3	c #AFC8C8",
"4	c #331B1A",
"5	c #414040",
"6	c #9CC2CC",
"7	c #9DC3CD",
"8	c #B8DEE6",
"9	c #D3D3D3",
"                                                                ",
"                                                                ",
"...++++@@@@.........@@@@                 @@@@        #@@@$++++..",
"%%&****====%%%%%%%%-====                .====.       ;===>****%%",
"%%&****====%%%%%%%%-====                .====.       ;===>****%%",
"%%&****====%%%%%%%%-====                .====.       ;===>****%%",
"%%&****====%%%%%%%%-====,,,,  '''   ),,,.'''=        ;===>!!!~%%",
"%%%%%%%%%%%%%%%%%%%%%%%&****, '''   +***!''' {%%%%%%%.        %%",
"%%%%%%%%%%%%%%%%%%%%%%%&****, '''   +***!''' {%%%%%%%.        %%",
"%%%%%%%%%%%%%%%%%%%%%%%&****, '''   +***!''' {%%%%%%%.        %%",
"%%%%%%%%%%%%%%%%%%%%%%%&]]''''^^^''''''''^^^''''%%%%%.        %%",
"%%%%%%%%%%%%%%%%%%%%%%%{==''''^^^''''''''^^^''''%%%%%.        %%",
"%%%%%%%%%%%%%%%%%%%%%%%{==''''^^^''''''''^^^''''%%%%%.        %%",
"%%%%%%%%%%%%%%%%%%%%%%%{==''''//////////////''''%%%%%.        %%",
"%%%%%%%%%%%%%%%%%%%%%%%{==''''//////////////''''%%%%%.        %%",
"%%(____{%%%%%%%%%%%%%%%{((''''//////////////''''%%%%%.   @___:%%",
"%%(===={%%%%%%%%%%%%%%%%%%''''//////////////''''%%%%%.   @===_%%",
"%%(===={%%%%%%%'''''''''''///////^^^^////^^^////''''%.   @===_%%",
"%%(===={%%%%%%%'''''''''''///////^^^^////^^^////''''%.   @===_%%",
"%%%<<<<[[[[%%%%'''''''''''///////^^^^////^^^////''''.}|||}####%%",
"%%%%%%%****%%%%'''''''''''///////^^^^////^^^////'''' |***|    %%",
"%%%%%%%****''''^^^^^^^1111////^^^22223333222////1111 |***|    %%",
"%%%%%%%****''''^^^^^^^1111////^^^22223333222////1111 |***|    %%",
"%%%%%%%[[[[''''^^^^^^^1111////^^^22223333222////1111 }|||}    %%",
"%%%%%%%%'''^^^^///////11114444///^^^^3333^^^4444^^^^'''       %%",
"%%%%%%%%'''^^^^///////11114444///^^^^3333^^^4444^^^^'''       %%",
"%%%%%%%%'''^^^^///////11114444///^^^^3333^^^4444^^^^'''       %%",
"%%%%%%%%'''^^^^///////11114444///^^^^3333^^^4444^^^^'''   ....%%",
"%%%%''''^^^////5555///////1111444333311113331111////^^^''''==_%%",
"%%%%''''^^^////5555///////1111444333311113331111////^^^''''==_%%",
"%%%%''''^^^////5555///////1111444333311113331111////^^^''''==_%%",
"%%%%''''///55551111///////////11144444444111////5555///''''==_%%",
"%%%%''''///55551111///////////11144444444111////5555///'''',, %%",
"%%%%''''///55551111///////////11144444444111////5555///''''   %%",
"%%%%''''///55551111///////////11144444444111////5555///''''   %%",
"%%%%''''///55551111555///////////11111111///55551111///''''   %%",
"%%%%''''///55551111555///////////11111111///55551111///''''   %%",
"%%%%''''///55551111555///////////11111111///55551111///''''   %%",
"%%%%''''///55551111555///////////11111111///55551111///''''   %%",
"%%%%''''555////^^^^1115555///////////////5551111^^^^///''''   %%",
"%%(6''''555////^^^^1115555///////////////5551111^^^^///''''77;%%",
"%%(=''''555////^^^^1115555///////////////5551111^^^^///''''==_%%",
"%%(====]'''5555////11111114444555555544441111111////555''''==_%%",
"%%(====]'''5555////11111114444555555544441111111////555''''==_%%",
"%%(====8'''5555////11111114444555555544441111111////555''''==_%%",
"%%(===={'''5555////11111114444555555544441111111////555''''==_%%",
"%%(===={%%%''''''''111^^^^11114444444^^^^1119999'''''''  @===_%%",
"%%(===={%%%''''''''111^^^^11114444444^^^^1119999'''''''  @===_%%",
"%%(____{%%%''''''''111^^^^11114444444^^^^1119999'''''''  @___:%%",
"%%%%%%%%%%%''''''''111^^^^11114444444^^^^1119999'''''''       %%",
"%%%%%%%%%%%%%%%%%%%'''////^^^^1114444////^^^''''              %%",
"%%%%%%%%%%%%%%%%%%%'''////^^^^1114444////^^^''''              %%",
"%%%%%%%%%%%%%%%%%%%'''////^^^^1114444////^^^''''              %%",
"%%(===={%%%%%%%%%%%'''4444////^^^11115555///''''         @===_%%",
"%%(===={%%%%%%%%%%%'''4444////^^^11115555///''''         @===_%%",
"%%(===={%%%%%%%%%%%'''4444////^^^11115555///''''         @===_%%",
"%%(===={%%%%%%%%%%%'''4444////^^^11115555///''''         @===_%%",
"%%{{{{{%%%%%%%%%%%%'''5555////'''5555////''']{{{{{{{{{{{{{{{{{%%",
"%%%%%%%%%%%%%%%%%%%'''5555////'''5555////'''*&%%%%%%%%%%%%%%%%%%",
"%%%%%%%%%%%%%%%%%%%'''5555////'''5555////'''*&%%%%%%%%%%%%%%%%%%",
"%%%%%%%%%%%%%%%%%%%'''5555////'''5555////'''*&%%%%%%%%%%%%%%%%%%",
"%%%%%%%%%%%%%%%%%%%'''4444''''%%%''''4444444''''%%%%%%%%%%%%%%%%",
"%%%%%%%%%%%%%%%%%%%'''4444''''%%%''''4444444''''%%%%%%%%%%%%%%%%",
"%%%%%%%%%%%%%%%%%%%'''4444''''%%%''''4444444''''%%%%%%%%%%%%%%%%"};
